<?xml version="1.0" encoding="UTF-8"?><svg id="Layer_2" xmlns="http://www.w3.org/2000/svg" viewBox="0 0 360 360"><defs><style>.cls-1{stroke:#000;stroke-miterlimit:10;}</style></defs><g id="Layer_3"><path class="cls-1" d="M155.31,210.4c-7.5-4.18-16.58-10.25-24.49-16.96h0l16.56-19.1c1.48-1.71,1.29-4.29-.41-5.76h0c-1.71-1.48-4.29-1.29-5.76,.41l-16.42,18.8h0c-3.59-3.48-6.51-6.91-9.61-10.92l-.85-1.15,20.86-18.88c1.67-1.52,1.8-4.1,.28-5.77h0c-1.52-1.67-4.1-1.8-5.77-.28l-20.06,17.84h0c-3.1-5.2-5.78-11.11-7.76-17.22h0l30.47-10.15,15.64,8.12-1.42,7.58,9.18-7.32,5.07,8.1,6.21,9.77h0l-11.72,42.88h0Z"/><path class="cls-1" d="M187.55,214.17l-8.75-43.67h0l-5.21,1.6h0l-12.07,41.54h0c2.34,1.19,4.49,2.24,6.55,2.98,2.44,.87,4.84,1.84,7.42,1.84h0c2.62,0,4.93-.78,7.52-1.89,1.46-.63,2.87-1.57,4.54-2.4h0Z"/><path class="cls-1" d="M172.87,164.66l4.8-1.48h0c2.18-8.87-.17-15.43-3.03-19.49h0l-12.47,3.42h0l10.23,16.76,.47,.78Z"/></g><path class="cls-1" d="M204.69,106.99l15.06,26.08c1.12,1.95,.47,4.43-1.47,5.55h0c-1.93,1.12-4.41,.44-5.54-1.5l-16.14-28.33h0c-3.54,1.71-6.96,3.87-9.74,6.58h0c.74,3,6.2,23.04,21.67,35.01l.87,.66,19.59-4.49c2.18-.5,4.36,.87,4.87,3.06h0c.51,2.19-.84,4.37-3.02,4.87l-20.7,4.75h0l2.22,12.07h0c19.66-6.83,28.8-3.59,28.8-3.59h0c4.05-6.96,8.29-16.07,8.26-25.4-.05-20.4-16.58-36.98-36.92-37.03-2.85,0-5.62,.31-8.28,.92l.47,.81Z"/><path class="cls-1" d="M202.22,153.34l4.62,26.08h0c20.51-6.98,29.83-4.72,29.83-4.72h0c-12.24,15.59-28.16,29.04-43.16,36.23h0l-8.87-47.55h0c5.45-18.49-8.93-27.29-8.93-27.29,.84-5.82,2.76-10.04,5.96-14.69h0c1.51,5.34,7.76,21.18,20.55,31.92h0Z"/><g><path class="cls-1" d="M101.28,142s0-.03,0-.04c0-.05,0-.1,0-.16v.2Z"/><path class="cls-1" d="M138.21,104.88c-20.6,0-37.31,16.6-37.33,37.09,0,.9,.01,1.64,.08,2.57l.7-.25,23.72-7.95v-12.69c0-2.26,1.84-4.09,4.11-4.09s4.11,1.83,4.11,4.09v10.75s17.06,8.81,17.06,8.81l24.02-7.13c-2.88-17.67-17.9-31.19-36.46-31.19Zm18.49,28.23c0,2.26-1.83,4.09-4.09,4.09s-4.09-1.83-4.09-4.09v-9.46c0-2.26,1.83-4.09,4.09-4.09s4.09,1.83,4.09,4.09v9.46Z"/></g></svg>